<svg viewBox="0 0 18 18" fill="none" xmlns="http://www.w3.org/2000/svg">
<path d="M15 4.99998H7C5.89543 4.99998 5 5.89541 5 6.99998V15C5 16.1046 5.89543 17 7 17H15C16.1046 17 17 16.1046 17 15V6.99998C17 5.89541 16.1046 4.99998 15 4.99998Z" stroke="currentColor" stroke-width="1.5" stroke-linecap="round" stroke-linejoin="round"/>
<path d="M13 5.00001V3.00001C13 2.46958 12.7893 1.96087 12.4142 1.5858C12.0391 1.21073 11.5304 1.00002 11 1.00002H3C2.46957 1.00002 1.96086 1.21073 1.58579 1.5858C1.21071 1.96087 1 2.46958 1 3.00001V11C1 11.5304 1.21071 12.0392 1.58579 12.4142C1.96086 12.7893 2.46957 13 3 13H5" stroke="currentColor" stroke-width="1.5" stroke-linecap="round" stroke-linejoin="round"/>
</svg>
