<svg  viewBox="0 0 18 18" fill="none" xmlns="http://www.w3.org/2000/svg">
<path d="M3.5 11.75C5.01878 11.75 6.25 10.5188 6.25 9C6.25 7.48122 5.01878 6.25 3.5 6.25C1.98122 6.25 0.75 7.48122 0.75 9C0.75 10.5188 1.98122 11.75 3.5 11.75Z" stroke="currentColor" stroke-width="1.5" stroke-linecap="round" stroke-linejoin="round"/>
<path d="M14.5 6.25C16.0188 6.25 17.25 5.01878 17.25 3.5C17.25 1.98122 16.0188 0.75 14.5 0.75C12.9812 0.75 11.75 1.98122 11.75 3.5C11.75 5.01878 12.9812 6.25 14.5 6.25Z" stroke="currentColor" stroke-width="1.5" stroke-linecap="round" stroke-linejoin="round"/>
<path d="M14.5 17.25C16.0188 17.25 17.25 16.0188 17.25 14.5C17.25 12.9812 16.0188 11.75 14.5 11.75C12.9812 11.75 11.75 12.9812 11.75 14.5C11.75 16.0188 12.9812 17.25 14.5 17.25Z" stroke="currentColor" stroke-width="1.5" stroke-linecap="round" stroke-linejoin="round"/>
<path d="M5.97499 7.80842L12.025 4.69176" stroke="currentColor" stroke-width="1.5" stroke-linecap="round" stroke-linejoin="round"/>
<path d="M5.97499 10.1918L12.025 13.3084" stroke="currentColor" stroke-width="1.5" stroke-linecap="round" stroke-linejoin="round"/>
</svg>
